<?xml version="1.0" encoding="UTF-8" standalone="no"?>
<svg width="36px" height="25px" viewBox="0 0 36 25" version="1.1" xmlns="http://www.w3.org/2000/svg" xmlns:xlink="http://www.w3.org/1999/xlink">
    <!-- Generator: Sketch 46.2 (44496) - http://www.bohemiancoding.com/sketch -->
    <title>picto l'éther</title>
    <desc>Created with Sketch.</desc>
    <defs></defs>
    <g id="Page-1" stroke="none" stroke-width="1" fill="none" fill-rule="evenodd">
        <g id="Desktop-HD" transform="translate(-603.000000, -733.000000)">
            <g id="fil-d'ariane" transform="translate(426.000000, 730.000000)">
                <g id="bullets" transform="translate(22.000000, 0.000000)">
                    <g id="Group-2" transform="translate(139.000000, 5.000000)">
                        <g id="picto-l'éther" transform="translate(16.000000, 0.000000)">
                            <path d="M28,10.5 C28,16.2991611 23.2987749,21 17.5002488,21 C11.7012251,21 7,16.2991611 7,10.5 C7,4.7008389 11.7012251,0 17.5002488,0 C23.2987749,0 28,4.7008389 28,10.5 Z" id="Stroke-1" stroke="#F0E6D2" stroke-width="3"></path>
                            <path d="M5,10.5 C5,11.8805503 3.88055034,13 2.5,13 C1.1189285,13 0,11.8805503 0,10.5 C0,9.11944966 1.1189285,8 2.5,8 C3.88055034,8 5,9.11944966 5,10.5" id="Fill-3" fill="#F0E6D2"></path>
                            <path d="M36,10.5 C36,11.8805503 34.8805503,13 33.5,13 C32.1189285,13 31,11.8805503 31,10.5 C31,9.11944966 32.1189285,8 33.5,8 C34.8805503,8 36,9.11944966 36,10.5" id="Fill-5" fill="#F0E6D2"></path>
                        </g>
                    </g>
                </g>
            </g>
        </g>
    </g>
</svg>