<?xml version="1.0" encoding="UTF-8" standalone="no"?>
<svg width="25px" height="25px" viewBox="0 0 25 25" version="1.1" xmlns="http://www.w3.org/2000/svg" xmlns:xlink="http://www.w3.org/1999/xlink">
    <!-- Generator: Sketch 46.2 (44496) - http://www.bohemiancoding.com/sketch -->
    <title>picto source</title>
    <desc>Created with Sketch.</desc>
    <defs></defs>
    <g id="Page-1" stroke="none" stroke-width="1" fill="none" fill-rule="evenodd">
        <g id="Desktop-HD" transform="translate(-488.000000, -733.000000)">
            <g id="fil-d'ariane" transform="translate(426.000000, 730.000000)">
                <g id="bullets" transform="translate(22.000000, 0.000000)">
                    <g id="Group-2" transform="translate(0.000000, 5.000000)">
                        <g id="picto-source" transform="translate(42.000000, 0.000000)">
                            <path d="M21,10.5 C21,16.2991611 16.2987749,21 10.5002488,21 C4.70122515,21 0,16.2991611 0,10.5 C0,4.7008389 4.70122515,0 10.5002488,0 C16.2987749,0 21,4.7008389 21,10.5 Z" id="Stroke-1" stroke="#F0E6D2" stroke-width="3"></path>
                            <path d="M13,10.5 C13,11.8805503 11.8805503,13 10.5,13 C9.1189285,13 8,11.8805503 8,10.5 C8,9.11944966 9.1189285,8 10.5,8 C11.8805503,8 13,9.11944966 13,10.5" id="Fill-3" fill="#F0E6D2"></path>
                        </g>
                    </g>
                </g>
            </g>
        </g>
    </g>
</svg>