<?xml version="1.0" encoding="utf-8"?>
<!-- Generator: Adobe Illustrator 19.0.0, SVG Export Plug-In . SVG Version: 6.00 Build 0)  -->
<svg version="1.1" id="Calque_2" xmlns="http://www.w3.org/2000/svg" xmlns:xlink="http://www.w3.org/1999/xlink" x="0px" y="0px"
	 viewBox="0 0 1515.3 1601.4" style="enable-background:new 0 0 1515.3 1601.4;" xml:space="preserve">
<style type="text/css">
	.st0{display:none;fill:none;stroke:#1F1F23;stroke-width:200;stroke-miterlimit:10;}
	.st1{display:none;fill:#1F1F23;}
	.st2{fill:none;stroke:#1F1F23;stroke-width:200;stroke-miterlimit:10;}
	.st3{display:none;fill:none;stroke:#1F1F23;stroke-width:210.9896;stroke-miterlimit:10;}
	.st4{fill:none;stroke:#1F1F23;stroke-width:210.9896;stroke-miterlimit:10;}
</style>
<polygon id="XMLID_49_" class="st0" points="-6354.1,1346.2 -7489.1,1346.2 -6921.6,266.7 "/>
<circle id="XMLID_48_" class="st1" cx="-6921.6" cy="975.4" r="127"/>
<line id="XMLID_47_" class="st0" x1="-4642.2" y1="-139.3" x2="-3694.2" y2="-139.3"/>
<polygon id="XMLID_46_" class="st0" points="-959.4,1335.7 -2094.3,1335.7 -1526.9,256.3 "/>
<circle id="XMLID_45_" class="st1" cx="-2402.4" cy="783.9" r="127"/>
<circle id="XMLID_44_" class="st1" cx="-651.4" cy="773.5" r="127"/>
<polygon id="XMLID_43_" class="st0" points="-3593.3,1351.1 -4728.2,1351.1 -4160.8,271.6 "/>
<circle id="XMLID_42_" class="st0" cx="-6921.6" cy="3243.3" r="558.5"/>
<circle id="XMLID_41_" class="st1" cx="-6921.6" cy="3243.3" r="127"/>
<circle id="XMLID_40_" class="st0" cx="-4160.9" cy="3243.3" r="558.5"/>
<line id="XMLID_39_" class="st0" x1="-4642.2" y1="2364.2" x2="-3694.2" y2="2364.2"/>
<circle id="XMLID_38_" class="st0" cx="-1526.9" cy="3243.3" r="558.5"/>
<circle id="XMLID_37_" class="st1" cx="-2405.8" cy="3248.5" r="127"/>
<circle id="XMLID_36_" class="st1" cx="-654.8" cy="3238.1" r="127"/>
<polygon id="XMLID_35_" class="st2" points="1322.3,1335.7 187.3,1335.7 754.8,256.3 "/>
<circle id="XMLID_34_" class="st0" cx="745.8" cy="3238.1" r="558.5"/>
<line id="XMLID_32_" class="st3" x1="745.8" y1="4013.7" x2="745.8" y2="2462.5"/>
<line id="XMLID_1_" class="st4" x1="745.8" y1="1571.6" x2="745.8" y2="20.4"/>
</svg>
