<?xml version="1.0" encoding="UTF-8" standalone="no"?>
<svg width="56px" height="37px" viewBox="0 0 56 37" version="1.1" xmlns="http://www.w3.org/2000/svg" xmlns:xlink="http://www.w3.org/1999/xlink">
    <!-- Generator: Sketch 46.2 (44496) - http://www.bohemiancoding.com/sketch -->
    <title>picto l'étau</title>
    <desc>Created with Sketch.</desc>
    <defs></defs>
    <g id="Page-1" stroke="none" stroke-width="1" fill="none" fill-rule="evenodd">
        <g id="Desktop-HD" transform="translate(-20.000000, -1829.000000)">
            <g id="side-navbar" transform="translate(0.000000, 672.000000)">
                <g id="item-1" transform="translate(0.000000, 1130.000000)">
                    <g id="title-arcane" transform="translate(20.000000, 22.000000)">
                        <g id="picto-l'étau" transform="translate(0.000000, 9.000000)">
                            <polygon id="Stroke-1" stroke="#F0E6D2" stroke-width="3" points="43.4 31 10.85 31 27.125 0"></polygon>
                            <path d="M7.75,16.275 C7.75,18.414853 6.01485303,20.15 3.875,20.15 C1.73433917,20.15 0,18.414853 0,16.275 C0,14.135147 1.73433917,12.4 3.875,12.4 C6.01485303,12.4 7.75,14.135147 7.75,16.275" id="Fill-3" fill="#F0E6D2"></path>
                            <path d="M55.8,16.275 C55.8,18.414853 54.064853,20.15 51.925,20.15 C49.7843392,20.15 48.05,18.414853 48.05,16.275 C48.05,14.135147 49.7843392,12.4 51.925,12.4 C54.064853,12.4 55.8,14.135147 55.8,16.275" id="Fill-5" fill="#F0E6D2"></path>
                        </g>
                    </g>
                </g>
            </g>
        </g>
    </g>
</svg>