<?xml version="1.0" encoding="utf-8"?>
<!-- Generator: Adobe Illustrator 19.0.0, SVG Export Plug-In . SVG Version: 6.00 Build 0)  -->
<svg version="1.1" id="Calque_2" xmlns="http://www.w3.org/2000/svg" xmlns:xlink="http://www.w3.org/1999/xlink" x="0px" y="0px"
	 viewBox="0 0 2030.4 1390" style="enable-background:new 0 0 2030.4 1390;" xml:space="preserve">
<style type="text/css">
	.st0{display:none;fill:none;stroke:#1F1F23;stroke-width:200;stroke-miterlimit:10;}
	.st1{display:none;fill:#1F1F23;}
	.st2{display:none;fill:none;stroke:#1F1F23;stroke-width:210.9896;stroke-miterlimit:10;}
	.st3{fill:none;stroke:#1F1F23;stroke-width:200;stroke-miterlimit:10;}
	.st4{fill:#1F1F23;}
</style>
<polygon id="XMLID_49_" class="st0" points="1584.3,1150.3 449.4,1150.3 1016.9,70.9 "/>
<circle id="XMLID_48_" class="st1" cx="1016.9" cy="779.6" r="127"/>
<polygon id="XMLID_43_" class="st0" points="1587.2,1155.2 452.3,1155.2 1019.8,75.8 "/>
<line id="XMLID_47_" class="st0" x1="538.3" y1="-335.1" x2="1486.3" y2="-335.1"/>
<polygon id="XMLID_46_" class="st0" points="1587.2,1139.9 452.3,1139.9 1019.8,60.4 "/>
<circle id="XMLID_45_" class="st1" cx="144.3" cy="588.1" r="127"/>
<circle id="XMLID_44_" class="st1" cx="1895.3" cy="577.6" r="127"/>
<polygon id="XMLID_35_" class="st0" points="1587.3,1139.9 452.4,1139.9 1019.8,60.4 "/>
<line id="XMLID_1_" class="st2" x1="1010.9" y1="1375.8" x2="1010.9" y2="-175.4"/>
<circle id="XMLID_42_" class="st0" cx="1016.9" cy="704.2" r="558.5"/>
<circle id="XMLID_41_" class="st1" cx="1016.9" cy="704.2" r="127"/>
<circle id="XMLID_40_" class="st0" cx="1014.6" cy="700.9" r="558.5"/>
<line id="XMLID_39_" class="st0" x1="533.3" y1="-178.2" x2="1481.3" y2="-178.2"/>
<circle id="XMLID_38_" class="st3" cx="1020.1" cy="699.3" r="558.5"/>
<circle id="XMLID_37_" class="st4" cx="141.2" cy="704.5" r="127"/>
<circle id="XMLID_36_" class="st4" cx="1890.1" cy="694.1" r="127"/>
<circle id="XMLID_34_" class="st0" cx="8684.3" cy="3042.2" r="558.5"/>
<line id="XMLID_32_" class="st2" x1="8684.3" y1="3817.8" x2="8684.3" y2="2266.6"/>
</svg>
