<?xml version="1.0" encoding="UTF-8" standalone="no"?>
<svg width="54px" height="35px" viewBox="0 0 54 35" version="1.1" xmlns="http://www.w3.org/2000/svg" xmlns:xlink="http://www.w3.org/1999/xlink">
    <!-- Generator: Sketch 46.2 (44496) - http://www.bohemiancoding.com/sketch -->
    <title>picto l'éther</title>
    <desc>Created with Sketch.</desc>
    <defs></defs>
    <g id="Page-1" stroke="none" stroke-width="1" fill="none" fill-rule="evenodd">
        <g id="Desktop-HD" transform="translate(-21.000000, -1293.000000)">
            <g id="side-navbar" transform="translate(0.000000, 672.000000)">
                <g id="item-1" transform="translate(0.000000, 590.000000)">
                    <g id="title-arcane" transform="translate(21.000000, 22.000000)">
                        <g id="picto-l'éther" transform="translate(0.000000, 11.000000)">
                            <path d="M42.0714286,15.5 C42.0714286,24.0606664 35.1315248,31 26.5717959,31 C18.0113324,31 11.0714286,24.0606664 11.0714286,15.5 C11.0714286,6.93933362 18.0113324,0 26.5717959,0 C35.1315248,0 42.0714286,6.93933362 42.0714286,15.5 Z" id="Stroke-1" stroke="#F0E6D2" stroke-width="3"></path>
                            <path d="M7.38095238,15.5 C7.38095238,17.5379553 5.72843146,19.1904762 3.69047619,19.1904762 C1.65175159,19.1904762 0,17.5379553 0,15.5 C0,13.4620447 1.65175159,11.8095238 3.69047619,11.8095238 C5.72843146,11.8095238 7.38095238,13.4620447 7.38095238,15.5" id="Fill-3" fill="#F0E6D2"></path>
                            <path d="M53.8809524,15.5 C53.8809524,17.5379553 52.2284315,19.1904762 50.1904762,19.1904762 C48.1517516,19.1904762 46.5,17.5379553 46.5,15.5 C46.5,13.4620447 48.1517516,11.8095238 50.1904762,11.8095238 C52.2284315,11.8095238 53.8809524,13.4620447 53.8809524,15.5" id="Fill-5" fill="#F0E6D2"></path>
                        </g>
                    </g>
                </g>
            </g>
        </g>
    </g>
</svg>