<?xml version="1.0" encoding="UTF-8" standalone="no"?>
<svg width="757px" height="578px" viewBox="0 0 757 578" version="1.1" xmlns="http://www.w3.org/2000/svg" xmlns:xlink="http://www.w3.org/1999/xlink">
    <!-- Generator: Sketch 46.2 (44496) - http://www.bohemiancoding.com/sketch -->
    <title>Page 1</title>
    <desc>Created with Sketch.</desc>
    <defs>
        <polygon id="path-1" points="0 106.365567 0 0.307195266 106.475841 0.307195266 106.475841 106.365567"></polygon>
        <polygon id="path-3" points="106.469302 0.121190955 106.469302 106.179563 0.411138852 106.179563 0.411138852 0.121190955 106.469302 0.121190955"></polygon>
    </defs>
    <g id="Page-1" stroke="none" stroke-width="1" fill="none" fill-rule="evenodd" opacity="0.05">
        <g id="Desktop-HD" transform="translate(-683.000000, -1823.000000)">
            <g id="page-2" transform="translate(111.000000, 868.000000)">
                <g id="arcanes" transform="translate(0.000000, 271.000000)">
                    <g id="l'éther" transform="translate(0.000000, 615.000000)">
                        <g id="text" transform="translate(0.000000, 124.000000)">
                            <g id="Page-1" transform="translate(572.000000, 0.000000)">
                                <path d="M655.760479,234 C655.760479,363.234718 550.995197,468 421.760479,468 C292.525761,468 187.760479,363.234718 187.760479,234 C187.760479,104.765282 292.525761,0 421.760479,0 C550.995197,0 655.760479,104.765282 655.760479,234 Z" id="Stroke-1" stroke="#1E1E22" stroke-width="110"></path>
                                <g id="Group-5" transform="translate(0.000000, 182.155689)">
                                    <mask id="mask-2" fill="white">
                                        <use xlink:href="#path-1"></use>
                                    </mask>
                                    <g id="Clip-4"></g>
                                    <path d="M106.475841,53.3363813 C106.475841,82.6234993 82.6403001,106.365567 53.2378785,106.365567 C23.8354569,106.365567 -8.38511952e-05,82.6234993 -8.38511952e-05,53.3363813 C-8.38511952e-05,24.0492633 23.8354569,0.307195266 53.2378785,0.307195266 C82.6403001,0.307195266 106.475841,24.0492633 106.475841,53.3363813" id="Fill-3" fill="#1E1E22" mask="url(#mask-2)"></path>
                                </g>
                                <g id="Group-8" transform="translate(733.293413, 178.419162)">
                                    <mask id="mask-4" fill="white">
                                        <use xlink:href="#path-3"></use>
                                    </mask>
                                    <g id="Clip-7"></g>
                                    <path d="M106.469511,53.150377 C106.469511,82.437495 82.7274429,106.179563 53.4403249,106.179563 C24.1532069,106.179563 0.411138852,82.437495 0.411138852,53.150377 C0.411138852,23.863259 24.1532069,0.121190955 53.4403249,0.121190955 C82.7274429,0.121190955 106.469511,23.863259 106.469511,53.150377" id="Fill-6" fill="#1E1E22" mask="url(#mask-4)"></path>
                                </g>
                            </g>
                        </g>
                    </g>
                </g>
            </g>
        </g>
    </g>
</svg>