<?xml version="1.0" encoding="utf-8"?>
<!-- Generator: Adobe Illustrator 19.0.0, SVG Export Plug-In . SVG Version: 6.00 Build 0)  -->
<svg version="1.1" id="Calque_2" xmlns="http://www.w3.org/2000/svg" xmlns:xlink="http://www.w3.org/1999/xlink" x="0px" y="0px"
	 viewBox="0 0 1485.7 1412.9" style="enable-background:new 0 0 1485.7 1412.9;" xml:space="preserve">
<style type="text/css">
	.st0{fill:none;stroke:#1F1F23;stroke-width:200;stroke-miterlimit:10;}
	.st1{fill:#1F1F23;}
	.st2{display:none;fill:none;stroke:#1F1F23;stroke-width:200;stroke-miterlimit:10;}
	.st3{display:none;fill:#1F1F23;}
	.st4{display:none;fill:none;stroke:#1F1F23;stroke-width:210.9896;stroke-miterlimit:10;}
</style>
<polygon id="XMLID_49_" class="st0" points="1307.4,1305.4 172.5,1305.4 740,226 "/>
<circle id="XMLID_48_" class="st1" cx="740" cy="934.6" r="127"/>
<line id="XMLID_47_" class="st2" x1="3019.4" y1="-180" x2="3967.4" y2="-180"/>
<polygon id="XMLID_46_" class="st2" points="6702.2,1295 5567.2,1295 6134.7,215.5 "/>
<circle id="XMLID_45_" class="st3" cx="5259.2" cy="743.2" r="127"/>
<circle id="XMLID_44_" class="st3" cx="7010.2" cy="732.7" r="127"/>
<polygon id="XMLID_43_" class="st2" points="4068.3,1310.3 2933.4,1310.3 3500.8,230.9 "/>
<circle id="XMLID_42_" class="st2" cx="740" cy="3202.5" r="558.5"/>
<circle id="XMLID_41_" class="st3" cx="740" cy="3202.5" r="127"/>
<circle id="XMLID_40_" class="st2" cx="3500.7" cy="3202.5" r="558.5"/>
<line id="XMLID_39_" class="st2" x1="3019.4" y1="2323.5" x2="3967.4" y2="2323.5"/>
<circle id="XMLID_38_" class="st2" cx="6134.7" cy="3202.5" r="558.5"/>
<circle id="XMLID_37_" class="st3" cx="5255.8" cy="3207.8" r="127"/>
<circle id="XMLID_36_" class="st3" cx="7006.8" cy="3197.3" r="127"/>
<polygon id="XMLID_35_" class="st2" points="8983.8,1295 7848.9,1295 8416.4,215.5 "/>
<circle id="XMLID_34_" class="st2" cx="8407.4" cy="3197.3" r="558.5"/>
<line id="XMLID_32_" class="st4" x1="8407.4" y1="3972.9" x2="8407.4" y2="2421.7"/>
<line id="XMLID_1_" class="st4" x1="8407.4" y1="1530.9" x2="8407.4" y2="-20.3"/>
</svg>
