<?xml version="1.0" encoding="UTF-8" standalone="no"?>
<svg width="35px" height="35px" viewBox="0 0 35 35" version="1.1" xmlns="http://www.w3.org/2000/svg" xmlns:xlink="http://www.w3.org/1999/xlink">
    <!-- Generator: Sketch 46.2 (44496) - http://www.bohemiancoding.com/sketch -->
    <title>picto source</title>
    <desc>Created with Sketch.</desc>
    <defs></defs>
    <g id="Page-1" stroke="none" stroke-width="1" fill="none" fill-rule="evenodd">
        <g id="Desktop-HD" transform="translate(-31.000000, -703.000000)">
            <g id="side-navbar" transform="translate(0.000000, 672.000000)">
                <g id="item-1">
                    <g id="title-arcane" transform="translate(33.000000, 22.000000)">
                        <g id="picto-source" transform="translate(0.000000, 11.000000)">
                            <path d="M30.7828558,15.5716605 C30.7828558,23.9726605 23.9722279,30.7825674 15.5719488,30.7825674 C7.17094884,30.7825674 0.36032093,23.9726605 0.36032093,15.5716605 C0.36032093,7.17066047 7.17094884,0.360753488 15.5719488,0.360753488 C23.9722279,0.360753488 30.7828558,7.17066047 30.7828558,15.5716605 Z" id="Stroke-1" stroke="#F0E6D2" stroke-width="3"></path>
                            <path d="M19.0300349,15.5716605 C19.0300349,17.4814047 17.4814767,19.0299628 15.5717326,19.0299628 C13.6612674,19.0299628 12.1134302,17.4814047 12.1134302,15.5716605 C12.1134302,13.6619163 13.6612674,12.1133581 15.5717326,12.1133581 C17.4814767,12.1133581 19.0300349,13.6619163 19.0300349,15.5716605" id="Fill-3" fill="#F0E6D2"></path>
                        </g>
                    </g>
                </g>
            </g>
        </g>
    </g>
</svg>