<?xml version="1.0" encoding="utf-8"?>
<!-- Generator: Adobe Illustrator 19.0.0, SVG Export Plug-In . SVG Version: 6.00 Build 0)  -->
<svg version="1.1" id="Calque_2" xmlns="http://www.w3.org/2000/svg" xmlns:xlink="http://www.w3.org/1999/xlink" x="0px" y="0px"
	 viewBox="0 0 1485.7 1699.7" style="enable-background:new 0 0 1485.7 1699.7;" xml:space="preserve">
<style type="text/css">
	.st0{display:none;fill:none;stroke:#1F1F23;stroke-width:200;stroke-miterlimit:10;}
	.st1{display:none;fill:#1F1F23;}
	.st2{fill:none;stroke:#1F1F23;stroke-width:200;stroke-miterlimit:10;}
	.st3{display:none;fill:none;stroke:#1F1F23;stroke-width:210.9896;stroke-miterlimit:10;}
</style>
<polygon id="XMLID_49_" class="st0" points="1307.4,1592.2 172.5,1592.2 740,512.8 "/>
<circle id="XMLID_48_" class="st1" cx="740" cy="1221.4" r="127"/>
<polygon id="XMLID_43_" class="st2" points="1310.3,1597.1 175.4,1597.1 742.9,517.7 "/>
<line id="XMLID_47_" class="st2" x1="261.4" y1="106.8" x2="1209.4" y2="106.8"/>
<polygon id="XMLID_46_" class="st0" points="6702.2,1581.8 5567.2,1581.8 6134.7,502.3 "/>
<circle id="XMLID_45_" class="st1" cx="5259.2" cy="1030" r="127"/>
<circle id="XMLID_44_" class="st1" cx="7010.2" cy="1019.5" r="127"/>
<circle id="XMLID_42_" class="st0" cx="740" cy="3489.3" r="558.5"/>
<circle id="XMLID_41_" class="st1" cx="740" cy="3489.3" r="127"/>
<circle id="XMLID_40_" class="st0" cx="3500.7" cy="3489.3" r="558.5"/>
<line id="XMLID_39_" class="st0" x1="3019.4" y1="2610.3" x2="3967.4" y2="2610.3"/>
<circle id="XMLID_38_" class="st0" cx="6134.7" cy="3489.3" r="558.5"/>
<circle id="XMLID_37_" class="st1" cx="5255.8" cy="3494.6" r="127"/>
<circle id="XMLID_36_" class="st1" cx="7006.8" cy="3484.1" r="127"/>
<polygon id="XMLID_35_" class="st0" points="8983.8,1581.8 7848.9,1581.8 8416.4,502.3 "/>
<circle id="XMLID_34_" class="st0" cx="8407.4" cy="3484.1" r="558.5"/>
<line id="XMLID_32_" class="st3" x1="8407.4" y1="4259.7" x2="8407.4" y2="2708.5"/>
<line id="XMLID_1_" class="st3" x1="8407.4" y1="1817.7" x2="8407.4" y2="266.5"/>
</svg>
