<?xml version="1.0" encoding="utf-8"?>
<!-- Generator: Adobe Illustrator 19.0.0, SVG Export Plug-In . SVG Version: 6.00 Build 0)  -->
<svg version="1.1" id="Calque_2" xmlns="http://www.w3.org/2000/svg" xmlns:xlink="http://www.w3.org/1999/xlink" x="0px" y="0px"
	 viewBox="0 0 1346.3 1588.6" style="enable-background:new 0 0 1346.3 1588.6;" xml:space="preserve">
<style type="text/css">
	.st0{display:none;fill:none;stroke:#1F1F23;stroke-width:200;stroke-miterlimit:10;}
	.st1{display:none;fill:#1F1F23;}
	.st2{display:none;fill:none;stroke:#1F1F23;stroke-width:210.9896;stroke-miterlimit:10;}
	.st3{fill:none;stroke:#1F1F23;stroke-width:200;stroke-miterlimit:10;}
	.st4{fill:none;stroke:#1F1F23;stroke-width:210.9896;stroke-miterlimit:10;}
</style>
<polygon id="XMLID_49_" class="st0" points="1241,1348.9 106.1,1348.9 673.5,269.4 "/>
<circle id="XMLID_48_" class="st1" cx="673.5" cy="978.1" r="127"/>
<polygon id="XMLID_43_" class="st0" points="1243.9,1353.8 108.9,1353.8 676.4,274.3 "/>
<line id="XMLID_47_" class="st0" x1="195" y1="-136.6" x2="1143" y2="-136.6"/>
<polygon id="XMLID_46_" class="st0" points="1243.9,1338.4 108.9,1338.4 676.4,259 "/>
<circle id="XMLID_45_" class="st1" cx="-199.1" cy="786.6" r="127"/>
<circle id="XMLID_44_" class="st1" cx="1551.9" cy="776.2" r="127"/>
<polygon id="XMLID_35_" class="st0" points="1244,1338.4 109,1338.4 676.5,259 "/>
<line id="XMLID_1_" class="st2" x1="667.5" y1="1574.3" x2="667.5" y2="23.1"/>
<circle id="XMLID_42_" class="st0" cx="673.5" cy="902.8" r="558.5"/>
<circle id="XMLID_41_" class="st1" cx="673.5" cy="902.8" r="127"/>
<circle id="XMLID_40_" class="st0" cx="671.3" cy="899.4" r="558.5"/>
<line id="XMLID_39_" class="st0" x1="189.9" y1="20.3" x2="1138" y2="20.3"/>
<circle id="XMLID_38_" class="st0" cx="676.7" cy="897.9" r="558.5"/>
<circle id="XMLID_37_" class="st1" cx="-202.2" cy="903.1" r="127"/>
<circle id="XMLID_36_" class="st1" cx="1546.8" cy="892.6" r="127"/>
<circle id="XMLID_34_" class="st3" cx="671.8" cy="793" r="558.5"/>
<line id="XMLID_32_" class="st4" x1="671.8" y1="1568.6" x2="671.8" y2="17.4"/>
</svg>
