<?xml version="1.0" encoding="utf-8"?>
<!-- Generator: Adobe Illustrator 19.0.0, SVG Export Plug-In . SVG Version: 6.00 Build 0)  -->
<svg version="1.1" id="Calque_2" xmlns="http://www.w3.org/2000/svg" xmlns:xlink="http://www.w3.org/1999/xlink" x="0px" y="0px"
	 viewBox="0 0 2018.8 1425.6" style="enable-background:new 0 0 2018.8 1425.6;" xml:space="preserve">
<style type="text/css">
	.st0{display:none;fill:none;stroke:#1F1F23;stroke-width:200;stroke-miterlimit:10;}
	.st1{display:none;fill:#1F1F23;}
	.st2{fill:none;stroke:#1F1F23;stroke-width:200;stroke-miterlimit:10;}
	.st3{fill:#1F1F23;}
	.st4{display:none;fill:none;stroke:#1F1F23;stroke-width:210.9896;stroke-miterlimit:10;}
</style>
<polygon id="XMLID_49_" class="st0" points="1573.9,1318.1 439,1318.1 1006.4,238.6 "/>
<circle id="XMLID_48_" class="st1" cx="1006.4" cy="947.3" r="127"/>
<polygon id="XMLID_43_" class="st0" points="1576.8,1323 441.8,1323 1009.3,243.5 "/>
<line id="XMLID_47_" class="st0" x1="527.9" y1="-167.4" x2="1475.9" y2="-167.4"/>
<polygon id="XMLID_46_" class="st2" points="1576.8,1307.6 441.8,1307.6 1009.3,228.2 "/>
<circle id="XMLID_45_" class="st3" cx="133.8" cy="755.8" r="127"/>
<circle id="XMLID_44_" class="st3" cx="1884.8" cy="745.4" r="127"/>
<circle id="XMLID_42_" class="st0" cx="1006.4" cy="3215.2" r="558.5"/>
<circle id="XMLID_41_" class="st1" cx="1006.4" cy="3215.2" r="127"/>
<circle id="XMLID_40_" class="st0" cx="3767.2" cy="3215.2" r="558.5"/>
<line id="XMLID_39_" class="st0" x1="3285.8" y1="2336.1" x2="4233.9" y2="2336.1"/>
<circle id="XMLID_38_" class="st0" cx="6401.2" cy="3215.2" r="558.5"/>
<circle id="XMLID_37_" class="st1" cx="5522.2" cy="3220.4" r="127"/>
<circle id="XMLID_36_" class="st1" cx="7273.2" cy="3210" r="127"/>
<polygon id="XMLID_35_" class="st0" points="9250.3,1307.7 8115.4,1307.7 8682.8,228.2 "/>
<circle id="XMLID_34_" class="st0" cx="8673.9" cy="3210" r="558.5"/>
<line id="XMLID_32_" class="st4" x1="8673.9" y1="3985.6" x2="8673.9" y2="2434.4"/>
<line id="XMLID_1_" class="st4" x1="8673.9" y1="1543.5" x2="8673.9" y2="-7.7"/>
</svg>
