<?xml version="1.0" encoding="utf-8"?>
<!-- Generator: Adobe Illustrator 19.0.0, SVG Export Plug-In . SVG Version: 6.00 Build 0)  -->
<svg version="1.1" id="Calque_2" xmlns="http://www.w3.org/2000/svg" xmlns:xlink="http://www.w3.org/1999/xlink" x="0px" y="0px"
	 viewBox="0 0 1354.7 1692.1" style="enable-background:new 0 0 1354.7 1692.1;" xml:space="preserve">
<style type="text/css">
	.st0{display:none;fill:none;stroke:#1F1F23;stroke-width:200;stroke-miterlimit:10;}
	.st1{display:none;fill:#1F1F23;}
	.st2{display:none;fill:none;stroke:#1F1F23;stroke-width:210.9896;stroke-miterlimit:10;}
	.st3{fill:none;stroke:#1F1F23;stroke-width:200;stroke-miterlimit:10;}
</style>
<polygon id="XMLID_49_" class="st0" points="1247.1,1452.4 112.1,1452.4 679.6,373 "/>
<circle id="XMLID_48_" class="st1" cx="679.6" cy="1081.6" r="127"/>
<polygon id="XMLID_43_" class="st0" points="1250,1457.3 115,1457.3 682.5,377.9 "/>
<line id="XMLID_47_" class="st0" x1="201" y1="-33" x2="1149" y2="-33"/>
<polygon id="XMLID_46_" class="st0" points="1250,1442 115,1442 682.5,362.5 "/>
<circle id="XMLID_45_" class="st1" cx="-193" cy="890.2" r="127"/>
<circle id="XMLID_44_" class="st1" cx="1558" cy="879.7" r="127"/>
<polygon id="XMLID_35_" class="st0" points="1250,1442 115.1,1442 682.5,362.5 "/>
<line id="XMLID_1_" class="st2" x1="673.6" y1="1677.8" x2="673.6" y2="126.7"/>
<circle id="XMLID_42_" class="st0" cx="679.6" cy="1006.3" r="558.5"/>
<circle id="XMLID_41_" class="st1" cx="679.6" cy="1006.3" r="127"/>
<circle id="XMLID_40_" class="st3" cx="677.4" cy="1002.9" r="558.5"/>
<line id="XMLID_39_" class="st3" x1="196" y1="123.9" x2="1144" y2="123.9"/>
<circle id="XMLID_38_" class="st0" cx="6074.3" cy="3349.5" r="558.5"/>
<circle id="XMLID_37_" class="st1" cx="5195.4" cy="3354.7" r="127"/>
<circle id="XMLID_36_" class="st1" cx="6946.4" cy="3344.3" r="127"/>
<circle id="XMLID_34_" class="st0" cx="8347" cy="3344.3" r="558.5"/>
<line id="XMLID_32_" class="st2" x1="8347" y1="4119.9" x2="8347" y2="2568.7"/>
</svg>
