<?xml version="1.0" encoding="utf-8"?>
<!-- Generator: Adobe Illustrator 19.0.0, SVG Export Plug-In . SVG Version: 6.00 Build 0)  -->
<svg version="1.1" xmlns="http://www.w3.org/2000/svg" xmlns:xlink="http://www.w3.org/1999/xlink" x="0px" y="0px"
	 viewBox="0 0 90 90" style="enable-background:new 0 0 90 90;" xml:space="preserve">
<style type="text/css">
	.st0{fill:none;stroke:#ECE6D2;stroke-width:7;stroke-miterlimit:10;}
	.st1{fill:#EDE6D2;}
	.st2{fill:#EDE6D2;stroke:#ECE6D2;stroke-miterlimit:10;}
</style>
<g id="Calque_3">
	<path id="XMLID_7_" class="st0" d="M81.4,44.5c-4,0-45.6,0-48.5,0c-0.9,0-1.6,2.3-1.9,5.5h-10c-2.5,0-4.6-0.4-4.6,2.6
		c0,1.5,1.6,9.1,14.9,10.9c0.4,1.9,0.9,5.2,1.6,5.2c2.9,0,3.8,0,7.1,0s3.1,1.1,3,5c-0.1,3.8-3,5-3,5h-2.3c-2.5,0-4.5,2-4.5,4.5h36.1
		c0-2.5-2-4.5-4.5-4.5h-1.6c0,0-3.1-1.4-3-5c0.1-3.6-0.2-5,3-5s9.7,0,12.1,0S85.4,44.5,81.4,44.5z"/>
</g>
<g id="Calque_2">
	<path id="XMLID_5_" class="st1" d="M48.4,27.3l-38.2,0c-2.1,0-3.8-1.7-3.8-3.8l0-1c0-2.1,1.7-3.8,3.8-3.8l38.2,0
		c2.1,0,3.8,1.7,3.8,3.8l0,1C52.3,25.5,50.5,27.3,48.4,27.3z"/>
	<path id="XMLID_3_" class="st2" d="M60.3,36.1l-9.1,0c-2.3,0-4.1-1.9-4.1-4.1l0-18.2c0-2.3,1.9-4.1,4.1-4.1l9.1,0
		c2.3,0,4.1,1.9,4.1,4.1l0,18.2C64.4,34.3,62.6,36.1,60.3,36.1z"/>
</g>
</svg>
