<?xml version="1.0" encoding="utf-8"?>
<!-- Generator: Adobe Illustrator 19.0.0, SVG Export Plug-In . SVG Version: 6.00 Build 0)  -->
<svg version="1.1" id="Calque_3" xmlns="http://www.w3.org/2000/svg" xmlns:xlink="http://www.w3.org/1999/xlink" x="0px" y="0px"
	 viewBox="0 0 90 90" style="enable-background:new 0 0 90 90;" xml:space="preserve">
<style type="text/css">
	.st0{fill:none;stroke:#EDE6D2;stroke-width:6.6194;stroke-miterlimit:10;}
	.st1{fill:#EDE6D2;stroke:#EDE6D2;stroke-width:6.3194;stroke-miterlimit:10;}
	.st2{fill:#ECE6D2;}
</style>
<path id="XMLID_5_" class="st0" d="M53,26.5V14.3H37v12.2C24.9,30,16,41.1,16,54.4c0,16,13,29,29,29c16,0,29-13,29-29
	C74,41.1,65.1,30,53,26.5z"/>
<path id="XMLID_3_" class="st1" d="M56.9,14.8H33.1c-1.9,0-3.5-1.6-3.5-3.5v0c0-1.9,1.6-3.5,3.5-3.5h23.9c1.9,0,3.5,1.6,3.5,3.5v0
	C60.5,13.2,58.9,14.8,56.9,14.8z"/>
<path id="XMLID_8_" class="st2" d="M16,43.4c0,29.6,13,39,29,39c16,0,29-9.9,29-39H16z M55.8,74.7c4.1-4.6,5.3-10.7,4.6-16.8
	c-0.9-9.1,8.3-9.9,8.3-2C68.5,67.9,55.8,74.7,55.8,74.7z"/>
</svg>
