<?xml version="1.0" encoding="utf-8"?>
<!-- Generator: Adobe Illustrator 19.0.0, SVG Export Plug-In . SVG Version: 6.00 Build 0)  -->
<svg version="1.1" xmlns="http://www.w3.org/2000/svg" xmlns:xlink="http://www.w3.org/1999/xlink" x="0px" y="0px"
	 viewBox="0 0 90 90" style="enable-background:new 0 0 90 90;" xml:space="preserve">
<style type="text/css">
	.st0{fill:none;stroke:#EEE6D2;stroke-width:6.4572;stroke-miterlimit:10;}
	.st1{fill:#EEE6D2;}
</style>
<g id="Calque_3">
	<path id="XMLID_4_" class="st0" d="M53.8,9L27.1,19.6c0,0,0,7.3,0,19.9c0,22.3,17.4,35.6,26.7,37.2c9.2-1.6,26.7-14.9,26.7-37.2
		c0-12.6,0-19.9,0-19.9L53.8,9z"/>
</g>
<g id="Calque_2">
	<circle id="XMLID_1_" class="st1" cx="11.5" cy="77.7" r="5.6"/>
	
		<rect id="XMLID_2_" x="11.8" y="69.9" transform="matrix(0.629 0.7774 -0.7774 0.629 63.5283 15.8806)" class="st1" width="6.7" height="9.2"/>
	<polygon id="XMLID_7_" class="st1" points="23.7,68.1 13.2,55.8 11.9,65 18.4,72.6 24.8,80.1 34.1,80.3 	"/>
	<polygon id="XMLID_8_" class="st1" points="73.1,25.2 63.6,24.2 16.5,64.6 20.9,69.8 25.4,75 72.6,34.6 	"/>
</g>
</svg>
