<?xml version="1.0" encoding="UTF-8" standalone="no"?>
<svg width="49px" height="47px" viewBox="0 0 49 47" version="1.1" xmlns="http://www.w3.org/2000/svg" xmlns:xlink="http://www.w3.org/1999/xlink">
    <!-- Generator: Sketch 46.2 (44496) - http://www.bohemiancoding.com/sketch -->
    <title>Combined Shape</title>
    <desc>Created with Sketch.</desc>
    <defs></defs>
    <g id="Page-1" stroke="none" stroke-width="1" fill="none" fill-rule="evenodd">
        <g id="Desktop-HD" transform="translate(-1101.000000, -1288.000000)">
            <g id="page-2" transform="translate(137.000000, 944.000000)">
                <g id="block-3" transform="translate(810.000000, 122.000000)">
                    <g id="Combined-Shape" transform="translate(155.000000, 223.000000)">
                        <path d="M23.3801544,0.0185110191 L23.3801544,0 L2.51460237e-15,0 L0,32.3409134 L23.345441,44.7899392 L23.345441,44.8084503 L46.7255954,44.8084503 L46.7255954,12.4675369 L23.3801544,0.0185110191 Z" stroke="#FFCB64" fill="#0E1114"></path>
                        <g id="world" transform="translate(12.600000, 11.800000)" fill="#FFDCA4">
                            <g id="Capa_1">
                                <g id="Group">
                                    <path d="M19.409625,4.7034 L19.092375,4.803975 L17.40285,4.9545 L16.925625,5.716575 L16.57935,5.60655 L15.23475,4.39425 L15.039675,3.7638 L14.77845,3.0915 L13.93335,2.333475 L12.936375,2.1384 L12.913425,2.5947 L13.89015,3.5478 L14.36805,4.11075 L13.83075,4.39155 L13.39335,4.262625 L12.737925,3.98925 L12.7602,3.460725 L11.90025,3.107025 L11.614725,4.3497 L10.748025,4.546125 L10.83375,5.23935 L11.963025,5.4567 L12.1581,4.349025 L13.090275,4.486725 L13.523625,4.740525 L14.218875,4.740525 L14.69475,5.693625 L15.956325,6.973425 L15.86385,7.4709 L14.846625,7.3413 L13.088925,8.228925 L11.8233,9.747 L11.6586,10.4193 L11.204325,10.4193 L10.357875,10.02915 L9.535725,10.4193 L9.74025,11.286675 L10.098,10.87425 L10.7271,10.854675 L10.683225,11.633625 L11.204325,11.786175 L11.72475,12.370725 L12.574575,12.131775 L13.545225,12.285 L14.672475,12.588075 L15.235425,12.654225 L16.189875,13.7376 L18.03195,14.820975 L16.840575,17.097075 L15.58305,17.681625 L15.105825,18.98235 L13.286025,20.19735 L13.0923,20.898 C17.7444,19.7775 21.205125,15.598575 21.205125,10.602225 C21.203775,8.41995 20.542275,6.388875 19.409625,4.7034 Z" id="Shape"></path>
                                    <path d="M11.822625,16.143975 L11.050425,14.7123 L11.759175,13.2354 L11.050425,13.02345 L10.2546,12.22425 L8.4915,11.8287 L7.906275,10.60425 L7.906275,11.331225 L7.648425,11.331225 L6.129,9.271125 L6.129,7.5789 L5.01525,5.767875 L3.24675,6.0831 L2.055375,6.0831 L1.455975,5.69025 L2.22075,5.0841 L1.458,5.260275 C0.53865,6.830325 0.0027,8.65215 0.0027,10.603575 C0.0027,16.45785 4.748625,21.2058 10.603575,21.2058 C11.054475,21.2058 11.4966,21.165975 11.934,21.113325 L11.8233,19.8288 C11.8233,19.8288 12.309975,17.92125 12.309975,17.85645 C12.3093,17.790975 11.822625,16.143975 11.822625,16.143975 Z" id="Shape"></path>
                                    <path d="M3.942,3.418875 L5.82525,3.1563 L6.6933,2.680425 L7.670025,2.9619 L9.230625,2.8755 L9.765225,2.035125 L10.54485,2.163375 L12.438225,1.98585 L12.96,1.41075 L13.69575,0.91935 L14.7366,1.07595 L15.11595,1.018575 C13.745025,0.373275 12.219525,0 10.6029,0 C7.312275,0 4.36995,1.49985 2.4273,3.854925 L2.4327,3.854925 L3.942,3.418875 Z M11.0511,1.05435 L12.1338,0.458325 L12.82905,0.85995 L11.822625,1.626075 L10.861425,1.7226 L10.42875,1.4418 L11.0511,1.05435 Z M7.844175,1.141425 L8.322075,1.34055 L8.9478,1.141425 L9.288675,1.73205 L7.844175,2.1114 L7.1496,1.70505 C7.148925,1.70505 7.82865,1.26765 7.844175,1.141425 Z" id="Shape"></path>
                                </g>
                            </g>
                        </g>
                    </g>
                </g>
            </g>
        </g>
    </g>
</svg>