<?xml version="1.0" encoding="UTF-8" standalone="no"?>
<svg width="49px" height="47px" viewBox="0 0 49 47" version="1.1" xmlns="http://www.w3.org/2000/svg" xmlns:xlink="http://www.w3.org/1999/xlink">
    <!-- Generator: Sketch 46.2 (44496) - http://www.bohemiancoding.com/sketch -->
    <title>Combined Shape</title>
    <desc>Created with Sketch.</desc>
    <defs></defs>
    <g id="Page-1" stroke="none" stroke-width="1" fill="none" fill-rule="evenodd">
        <g id="Desktop-HD" transform="translate(-291.000000, -1288.000000)">
            <g id="page-2" transform="translate(137.000000, 944.000000)">
                <g id="block-1" transform="translate(0.000000, 122.000000)">
                    <g id="Combined-Shape" transform="translate(155.000000, 223.000000)">
                        <path d="M23.3801544,0.0185110191 L23.3801544,0 L2.51460237e-15,0 L0,32.3409134 L23.345441,44.7899392 L23.345441,44.8084503 L46.7255954,44.8084503 L46.7255954,12.4675369 L23.3801544,0.0185110191 Z" stroke="#FFCB64" fill="#0E1114"></path>
                        <g id="fire" transform="translate(16.000000, 12.000000)" fill="#FFDCA4">
                            <g id="Capa_1">
                                <path d="M14.9572656,11.856099 C14.7281641,8.83604087 13.3394141,6.94349644 12.1142578,5.27342515 C10.9798047,3.72730601 10,2.39215074 10,0.422600933 C10,0.264397808 9.9125,0.119800152 9.77375,0.04730357 C9.63457031,-0.0256280706 9.46734375,-0.0136837347 9.34082031,0.0794188044 C7.50082031,1.41251744 5.96558594,3.65935777 5.42929688,5.80316832 C5.05699219,7.29569615 5.00773438,8.97359849 5.00082031,10.0817718 C3.30160156,9.71430552 2.91667969,7.14081529 2.91261719,7.11277378 C2.89347656,6.9792899 2.81292969,6.86312925 2.69574219,6.7996898 C2.57734375,6.73708091 2.43816406,6.73253257 2.318125,6.79268931 C2.22902344,6.83635337 0.131015625,7.9156942 0.0089453125,12.2251869 C0.000390625,12.3685585 0,12.5123651 0,12.6561322 C0,16.8428592 3.36464844,20.249368 7.5,20.249368 C7.50570313,20.2497635 7.51179687,20.2505941 7.51667969,20.249368 L7.52195313,20.249368 C11.6471484,20.2373841 15,16.8354632 15,12.6561322 C15,12.4456034 14.9572656,11.856099 14.9572656,11.856099 Z M7.5,19.4056708 C6.12140625,19.4056708 5,18.1961683 5,16.7094149 C5,16.6587503 4.99960938,16.6076507 5.00324219,16.5450419 C5.01992188,15.9180433 5.13753906,15.4900248 5.26652344,15.2053382 C5.50824219,15.7310077 5.94035156,16.2142391 6.64226563,16.2142391 C6.87257813,16.2142391 7.05894531,16.0255423 7.05894531,15.7923905 C7.05894531,15.1917723 7.07117188,14.4988426 7.21886719,13.8734657 C7.3503125,13.3189637 7.66441406,12.7290243 8.06238281,12.2561156 C8.239375,12.8699437 8.58445313,13.3667411 8.92136719,13.8516336 C9.40355469,14.5453544 9.90199219,15.2626078 9.98949219,16.4857157 C9.99476563,16.5582123 10.0000781,16.6311439 10.0000781,16.7094149 C10,18.1961288 8.87859375,19.4056708 7.5,19.4056708 Z" id="Shape"></path>
                            </g>
                        </g>
                    </g>
                </g>
            </g>
        </g>
    </g>
</svg>