<?xml version="1.0" encoding="UTF-8" standalone="no"?>
<svg width="793px" height="606px" viewBox="0 0 793 606" version="1.1" xmlns="http://www.w3.org/2000/svg" xmlns:xlink="http://www.w3.org/1999/xlink">
    <!-- Generator: Sketch 46.2 (44496) - http://www.bohemiancoding.com/sketch -->
    <title>Page 1</title>
    <desc>Created with Sketch.</desc>
    <defs>
        <polygon id="path-1" points="0 120.608245 0 0.0998368627 119.982898 0.0998368627 119.982898 120.608245 1.14867592e-15 120.608245"></polygon>
    </defs>
    <g id="Page-1" stroke="none" stroke-width="1" fill="none" fill-rule="evenodd" opacity="0.0500000045">
        <g id="Desktop-HD" transform="translate(-622.000000, -5294.000000)">
            <g id="page-2" transform="translate(111.000000, 868.000000)">
                <g id="arcanes" transform="translate(0.000000, 271.000000)">
                    <g id="l'étau" transform="translate(0.000000, 4202.000000)">
                        <g id="text" transform="translate(0.000000, 72.000000)">
                            <g id="Page-1" transform="translate(511.000000, 0.000000)">
                                <polygon id="Stroke-1" stroke="#1E1E22" stroke-width="110" points="744 512 206 512 475.000237 0"></polygon>
                                <g id="Group-5" transform="translate(0.000000, 190.000000)">
                                    <mask id="mask-2" fill="white">
                                        <use xlink:href="#path-1"></use>
                                    </mask>
                                    <g id="Clip-4"></g>
                                    <path d="M119.982898,60.3540408 C119.982898,93.6314133 93.123685,120.608245 59.9914016,120.608245 C26.8591181,120.608245 -9.4488189e-05,93.6314133 -9.4488189e-05,60.3540408 C-9.4488189e-05,27.0766682 26.8591181,0.0998368627 59.9914016,0.0998368627 C93.123685,0.0998368627 119.982898,27.0766682 119.982898,60.3540408" id="Fill-3" fill="#1E1E22" mask="url(#mask-2)"></path>
                                </g>
                            </g>
                        </g>
                    </g>
                </g>
            </g>
        </g>
    </g>
</svg>