<?xml version="1.0" encoding="UTF-8" standalone="no"?>
<svg width="578px" height="578px" viewBox="0 0 578 578" version="1.1" xmlns="http://www.w3.org/2000/svg" xmlns:xlink="http://www.w3.org/1999/xlink">
    <!-- Generator: Sketch 46.2 (44496) - http://www.bohemiancoding.com/sketch -->
    <title>Page 1</title>
    <desc>Created with Sketch.</desc>
    <defs></defs>
    <g id="Page-1" stroke="none" stroke-width="1" fill="none" fill-rule="evenodd" opacity="0.049999997">
        <g id="Desktop-HD" transform="translate(-818.000000, -1208.000000)">
            <g id="page-2" transform="translate(111.000000, 868.000000)">
                <g id="arcanes" transform="translate(0.000000, 271.000000)">
                    <g id="la-source">
                        <g id="text" transform="translate(0.000000, 124.000000)">
                            <g id="Page-1" transform="translate(762.000000, 0.000000)">
                                <path d="M468,234 C468,363.234718 363.234718,468 234,468 C104.765282,468 0,363.234718 0,234 C0,104.765282 104.765282,0 234,0 C363.234718,0 468,104.765282 468,234 Z" id="Stroke-1" stroke="#1E1E22" stroke-width="110"></path>
                                <path d="M287,234 C287,263.270999 263.270999,287 234,287 C204.729001,287 181,263.270999 181,234 C181,204.729001 204.729001,181 234,181 C263.270999,181 287,204.729001 287,234" id="Fill-3" fill="#1E1E22"></path>
                            </g>
                        </g>
                    </g>
                </g>
            </g>
        </g>
    </g>
</svg>