<?xml version="1.0" encoding="UTF-8" standalone="no"?>
<svg width="12px" height="7px" viewBox="0 0 12 7" version="1.1" xmlns="http://www.w3.org/2000/svg" xmlns:xlink="http://www.w3.org/1999/xlink">
    <!-- Generator: Sketch 46.2 (44496) - http://www.bohemiancoding.com/sketch -->
    <title>arrow-point-to-right</title>
    <desc>Created with Sketch.</desc>
    <defs></defs>
    <g id="Page-1" stroke="none" stroke-width="1" fill="none" fill-rule="evenodd">
        <g id="Desktop-HD" transform="translate(-1397.000000, -42.000000)" fill="#FFCB64">
            <g id="navbar" transform="translate(-2.000000, 0.000000)">
                <g id="profile-connexion" transform="translate(1181.000000, 14.000000)">
                    <g id="content" transform="translate(0.000000, 2.000000)">
                        <g id="arrow-point-to-right" transform="translate(224.000000, 29.500000) rotate(-270.000000) translate(-224.000000, -29.500000) translate(221.000000, 24.000000)">
                            <g id="Capa_1">
                                <path d="M5.77447674,6.04251051 L1.25617442,10.7705879 C0.968755814,11.0715061 0.502755814,11.0715061 0.215476744,10.7705879 C-0.0718255814,10.4699375 -0.0718255814,9.98231139 0.215476744,9.68168529 L4.21347674,5.49805918 L0.215593023,1.31457909 C-0.0717093023,1.01380697 -0.0717093023,0.526229535 0.215593023,0.225579093 C0.502895349,-0.075193031 0.968872093,-0.075193031 1.2562907,0.225579093 L5.77459302,4.95372954 C5.91824419,5.10412777 5.98998837,5.30103263 5.98998837,5.49803485 C5.98998837,5.6951344 5.91810465,5.89218529 5.77447674,6.04251051 Z" id="Shape"></path>
                            </g>
                        </g>
                    </g>
                </g>
            </g>
        </g>
    </g>
</svg>