<?xml version="1.0" encoding="UTF-8" standalone="no"?>
<svg width="55px" height="54px" viewBox="0 0 55 54" version="1.1" xmlns="http://www.w3.org/2000/svg" xmlns:xlink="http://www.w3.org/1999/xlink">
    <!-- Generator: Sketch 46.2 (44496) - http://www.bohemiancoding.com/sketch -->
    <title>Page 1</title>
    <desc>Created with Sketch.</desc>
    <defs></defs>
    <g id="Page-1" stroke="none" stroke-width="1" fill="none" fill-rule="evenodd">
        <g id="Desktop-HD" transform="translate(-27.000000, -17.000000)">
            <g id="navbar" transform="translate(-2.000000, 0.000000)">
                <g id="logo" transform="translate(30.000000, 18.000000)">
                    <g id="Page-1">
                        <path d="M10.0415707,8.63749398 C10.0415707,8.63749398 9.0500923,2.9251291 16.7512755,1.21198685 C25.6585238,-0.602024876 26.0322259,9.83953094 35.7080452,9.23476103 L35.4292444,13.0579361 C24.7660341,14.2671779 23.7612557,3.73133998 17.3436517,4.73899184 C13.3942334,5.34376174 13.9165405,8.79721641 13.9165405,8.79721641 L10.0415707,8.63749398 Z" id="Fill-1" fill="#EFE5D0"></path>
                        <path d="M13.9165405,8.79721641 L10.0415707,8.63749398 C10.0415707,8.63749398 9.0500923,2.9251291 16.7512755,1.21198685 C25.6585238,-0.602024876 25.6813928,9.81262743 35.3572121,9.20785752 L35.3572121,13.2119782 C25.7662067,13.6118062 23.8226688,3.82131088 17.3436517,4.73899184 C14.514321,5.13973517 13.9165405,7.79721641 13.9165405,8.79721641 Z" id="Stroke-3" stroke="#EFE5D0"></path>
                        <path d="M27,2.8569632 C27,2.8569632 30.7296085,-2.62431231 37.2476892,1.59762354 C44.672972,6.59674106 38.1388837,13.3704361 45.2796636,19.7462339 L42.7157025,22.6219294 C34.4784338,15.971319 40.4175987,8.26379211 35.2703438,4.45494759 C32.1133207,2.10013801 29.8057973,5.46361163 29.8057973,5.46361163 L27,2.8569632 Z" id="Fill-5" fill="#FECB5B"></path>
                        <path d="M29.8057973,5.46361163 L27,2.8569632 C27,2.8569632 30.7296085,-2.62431231 37.2476892,1.59762354 C44.672972,6.59674106 37.4234276,13.3680026 44.5642075,19.7438004 L42.6083841,21.9261849 C34.3711154,15.2755745 40.4175987,8.26379211 35.2703438,4.45494759 C32.1133207,2.10013801 29.8057973,5.46361163 29.8057973,5.46361163 Z" id="Stroke-7" stroke="#FECB5B"></path>
                        <path d="M43.6437418,9.00404651 C43.6437418,9.00404651 50.510318,8.59299677 51.8639467,16.0566322 C53.2699876,24.6832 43.5509906,24.9989407 43.7771162,34.3222006 L40.022886,34.0993202 C39.2564453,23.8058031 49.21038,22.7075773 48.4824317,16.50265 C48.0492137,12.6846761 43.7771162,12.749697 43.7771162,12.749697 L43.6437418,9.00404651 Z" id="Fill-9" fill="#EFE5D0"></path>
                        <path d="M43.7771162,12.749697 L43.6437418,9.00404651 C43.6437418,9.00404651 50.510318,8.59299677 51.8639467,16.0566322 C53.2699876,24.6832 43.5509906,25.1947951 43.7771162,34.518055 L40.0536704,34.3344813 C39.2872297,24.0409642 49.21038,22.7075773 48.4824317,16.50265 C48.0492137,12.6846761 43.7771162,12.749697 43.7771162,12.749697 Z" id="Stroke-11" stroke="#EFE5D0"></path>
                        <path d="M50.2366959,27 C50.2366959,27 55.8843825,31.7866083 51.0316517,37.9716921 C45.3143883,44.9994097 39.2828624,37.0790009 32.218696,43.6870013 L29.5223512,40.9368757 C36.9680964,33.2467146 44.0655055,40.5369697 48.3718318,35.6982967 C51.0315058,32.7323535 47.6220938,29.9041346 47.6220938,29.9041346 L50.2366959,27 Z" id="Fill-13" fill="#FECB5B"></path>
                        <path d="M47.6220938,29.9041346 L50.2366959,27 C50.2366959,27 55.8843825,31.7866083 51.0316517,37.9716921 C45.3143883,44.9994097 39.0830701,36.6110342 32.0189037,43.2190346 L29.6744465,40.6679713 C37.1201917,32.9778102 44.0655055,40.5369697 48.3718318,35.6982967 C51.0315058,32.7323535 47.6220938,29.9041346 47.6220938,29.9041346 Z" id="Stroke-15" stroke="#FECB5B"></path>
                        <path d="M43.968317,43.0554704 C43.968317,43.0554704 43.7395342,49.7742525 35.9849089,50.9107748 C27.0273525,52.0599726 27.6714794,41.7303098 18.0358413,41.6309691 L18,38.0128457 C28.656606,37.5864472 29.2091707,47.920679 35.6421679,47.3878651 C39.599942,47.0753989 39.8861254,42.6643406 39.8861254,42.6643406 L43.968317,43.0554704 Z" id="Fill-17" fill="#EFE5D0"></path>
                        <path d="M39.9966118,43.1140612 L44.009519,43.4596382 C44.009519,43.4596382 43.7395342,49.7742525 35.9849089,50.9107748 C27.0273525,52.0599726 27.6714794,41.7303098 18.0358413,41.6309691 L18,38.0128457 C28.656606,37.5864472 29.2091707,47.920679 35.6421679,47.3878651 C39.599942,47.0753989 39.9966118,43.1140612 39.9966118,43.1140612 Z" id="Stroke-19" stroke="#EFE5D0"></path>
                        <path d="M23.2049516,46.4553325 L26,49.278985 C26,49.278985 21.8022797,54.6705847 15.2661846,50.27486 C7.82733178,45.0807727 15.0964579,37.9501185 8,31.4101379 L10.6432651,29 C18.8551538,35.8505823 12.2566981,43.5929802 17.4008579,47.5319038 C20.5552151,49.9661216 23.2049516,46.4553325 23.2049516,46.4553325" id="Fill-21" fill="#FECB5B"></path>
                        <path d="M23.2049516,46.4553325 L26,49.278985 C26,49.278985 21.8022797,54.6705847 15.2661846,50.27486 C7.82733178,45.0807727 15.0964579,37.9501185 8,31.4101379 L10.6432651,29 C18.8551538,35.8505823 12.2566981,43.5929802 17.4008579,47.5319038 C20.5552151,49.9661216 23.2049516,46.4553325 23.2049516,46.4553325 Z" id="Stroke-23" stroke="#FECB5B"></path>
                        <path d="M9.10920804,38.1342922 L9.19908434,41.9657902 C9.19908434,41.9657902 2.3558835,42.8812288 1.11603372,35.241047 C-0.162453182,26.4120864 9.5483417,26.5277359 9.42744492,17 L12.9702883,17.0261144 C13.607593,27.5510757 3.77423953,28.47498 4.41749902,34.8223558 C4.79902322,38.7278924 9.10920804,38.1342922 9.10920804,38.1342922" id="Fill-25" fill="#EFE5D0"></path>
                        <path d="M9.10920804,38.1342922 L9.19908434,41.9657902 C9.19908434,41.9657902 2.3558835,42.8812288 1.11603372,35.241047 C-0.162453182,26.4120864 9.5483417,26.5277359 9.42744492,17 L12.9702883,17.0261144 C13.607593,27.5510757 3.77423953,28.47498 4.41749902,34.8223558 C4.79902322,38.7278924 9.10920804,38.1342922 9.10920804,38.1342922 Z" id="Stroke-27" stroke="#EFE5D0"></path>
                        <path d="M5.52821567,22.3889417 L2.79950534,25 C2.79950534,25 -2.86609397,20.2968936 1.92245103,14.1271759 C7.56624391,7.11498592 14.4147689,14.60624 21.4040181,8 L24,10.4258933 C16.6387333,18.1080808 8.84526328,11.5302501 4.59083026,16.3608378 C1.96301097,19.3221811 5.52821567,22.3889417 5.52821567,22.3889417" id="Fill-29" fill="#FECB5B"></path>
                        <path d="M5.52821567,22.3889417 L2.79950534,25 C2.79950534,25 -2.86609397,20.2968936 1.92245103,14.1271759 C7.56624391,7.11498592 14.4147689,14.60624 21.4040181,8 L24,10.4258933 C16.6387333,18.1080808 8.84526328,11.5302501 4.59083026,16.3608378 C1.96301097,19.3221811 5.52821567,22.3889417 5.52821567,22.3889417 Z" id="Stroke-31" stroke="#FECB5B"></path>
                    </g>
                </g>
            </g>
        </g>
    </g>
</svg>