<?xml version="1.0" encoding="UTF-8" standalone="no"?>
<svg width="55px" height="54px" viewBox="0 0 55 54" version="1.1" xmlns="http://www.w3.org/2000/svg" xmlns:xlink="http://www.w3.org/1999/xlink">
    <!-- Generator: Sketch 46.2 (44496) - http://www.bohemiancoding.com/sketch -->
    <title>Page 1</title>
    <desc>Created with Sketch.</desc>
    <defs></defs>
    <g id="Page-1" stroke="none" stroke-width="1" fill="none" fill-rule="evenodd">
        <g id="Desktop-HD" transform="translate(-27.000000, -17.000000)">
            <g id="navbar" transform="translate(-2.000000, 0.000000)">
                <g id="logo" transform="translate(30.000000, 18.000000)">
                    <g id="Page-1">
                        <path d="M13.9165405,9.79721641 L10.0415707,9.63749398 C10.0415707,9.63749398 9.0500923,2.9251291 16.7512755,1.21198685 C25.6585238,-0.602024876 26.0322259,9.83953094 35.7080452,9.23476103 L36,12.9018211 C25.3367896,14.111063 23.7612557,3.73133998 17.3436517,4.73899184 C13.3942334,5.34376174 13.9165405,9.79721641 13.9165405,9.79721641" id="Fill-1" fill="#EFE5D0"></path>
                        <path d="M13.9165405,9.79721641 L10.0415707,9.63749398 C10.0415707,9.63749398 9.0500923,2.9251291 16.7512755,1.21198685 C25.6585238,-0.602024876 26.0322259,9.83953094 35.7080452,9.23476103 L36,12.9018211 C25.3367896,14.111063 23.7612557,3.73133998 17.3436517,4.73899184 C13.3942334,5.34376174 13.9165405,9.79721641 13.9165405,9.79721641 Z" id="Stroke-3" stroke="#EFE5D0"></path>
                        <path d="M29.8057973,5.46361163 L27,2.8569632 C27,2.8569632 30.7296085,-2.62431231 37.2476892,1.59762354 C44.672972,6.59674106 37.8592201,14.0861842 45,20.461982 L42.5157898,23 C34.2785211,16.3493896 40.4175987,8.26379211 35.2703438,4.45494759 C32.1133207,2.10013801 29.8057973,5.46361163 29.8057973,5.46361163" id="Fill-5" fill="#FECB5B"></path>
                        <path d="M29.8057973,5.46361163 L27,2.8569632 C27,2.8569632 30.7296085,-2.62431231 37.2476892,1.59762354 C44.672972,6.59674106 37.8592201,14.0861842 45,20.461982 L42.5157898,23 C34.2785211,16.3493896 40.4175987,8.26379211 35.2703438,4.45494759 C32.1133207,2.10013801 29.8057973,5.46361163 29.8057973,5.46361163 Z" id="Stroke-7" stroke="#FECB5B"></path>
                        <path d="M43.7771162,12.749697 L43.6437418,9.00404651 C43.6437418,9.00404651 50.510318,8.59299677 51.8639467,16.0566322 C53.2699876,24.6832 43.3093828,24.6767401 43.5355084,34 L40.0422089,33.8715031 C39.2757682,23.577986 49.21038,22.7075773 48.4824317,16.50265 C48.0492137,12.6846761 43.7771162,12.749697 43.7771162,12.749697" id="Fill-9" fill="#EFE5D0"></path>
                        <path d="M43.7771162,12.749697 L43.6437418,9.00404651 C43.6437418,9.00404651 50.510318,8.59299677 51.8639467,16.0566322 C53.2699876,24.6832 43.3093828,24.6767401 43.5355084,34 L40.0422089,33.8715031 C39.2757682,23.577986 49.21038,22.7075773 48.4824317,16.50265 C48.0492137,12.6846761 43.7771162,12.749697 43.7771162,12.749697 Z" id="Stroke-11" stroke="#EFE5D0"></path>
                        <path d="M47.6220938,29.9041346 L50.2366959,27 C50.2366959,27 55.8843825,31.7866083 51.0316517,37.9716921 C45.3143883,44.9994097 38.5016904,37.3919995 31.437524,44 L29,41.3903655 C36.4457452,33.7002045 44.0655055,40.5369697 48.3718318,35.6982967 C51.0315058,32.7323535 47.6220938,29.9041346 47.6220938,29.9041346" id="Fill-13" fill="#FECB5B"></path>
                        <path d="M47.6220938,29.9041346 L50.2366959,27 C50.2366959,27 55.8843825,31.7866083 51.0316517,37.9716921 C45.3143883,44.9994097 38.5016904,37.3919995 31.437524,44 L29,41.3903655 C36.4457452,33.7002045 44.0655055,40.5369697 48.3718318,35.6982967 C51.0315058,32.7323535 47.6220938,29.9041346 47.6220938,29.9041346 Z" id="Stroke-15" stroke="#FECB5B"></path>
                        <path d="M40.117391,42.6224599 L44,42.7658702 C44,42.7658702 43.7395342,49.7742525 35.9849089,50.9107748 C27.0273525,52.0599726 27.6714794,41.7303098 18.0358413,41.6309691 L18,38.0128457 C28.656606,37.5864472 29.2091707,47.920679 35.6421679,47.3878651 C39.599942,47.0753989 40.117391,42.6224599 40.117391,42.6224599" id="Fill-17" fill="#EFE5D0"></path>
                        <path d="M40.117391,42.6224599 L44,42.7658702 C44,42.7658702 43.7395342,49.7742525 35.9849089,50.9107748 C27.0273525,52.0599726 27.6714794,41.7303098 18.0358413,41.6309691 L18,38.0128457 C28.656606,37.5864472 29.2091707,47.920679 35.6421679,47.3878651 C39.599942,47.0753989 40.117391,42.6224599 40.117391,42.6224599 Z" id="Stroke-19" stroke="#EFE5D0"></path>
                        <path d="M23.2049516,46.4553325 L26,49.278985 C26,49.278985 21.8022797,54.6705847 15.2661846,50.27486 C7.82733178,45.0807727 15.0964579,37.9501185 8,31.4101379 L10.6432651,29 C18.8551538,35.8505823 12.2566981,43.5929802 17.4008579,47.5319038 C20.5552151,49.9661216 23.2049516,46.4553325 23.2049516,46.4553325" id="Fill-21" fill="#FECB5B"></path>
                        <path d="M23.2049516,46.4553325 L26,49.278985 C26,49.278985 21.8022797,54.6705847 15.2661846,50.27486 C7.82733178,45.0807727 15.0964579,37.9501185 8,31.4101379 L10.6432651,29 C18.8551538,35.8505823 12.2566981,43.5929802 17.4008579,47.5319038 C20.5552151,49.9661216 23.2049516,46.4553325 23.2049516,46.4553325 Z" id="Stroke-23" stroke="#FECB5B"></path>
                        <path d="M9.10920804,38.1342922 L9.19908434,41.9657902 C9.19908434,41.9657902 2.3558835,42.8812288 1.11603372,35.241047 C-0.162453182,26.4120864 9.5483417,26.5277359 9.42744492,17 L12.9702883,17.0261144 C13.607593,27.5510757 3.77423953,28.47498 4.41749902,34.8223558 C4.79902322,38.7278924 9.10920804,38.1342922 9.10920804,38.1342922" id="Fill-25" fill="#EFE5D0"></path>
                        <path d="M9.10920804,38.1342922 L9.19908434,41.9657902 C9.19908434,41.9657902 2.3558835,42.8812288 1.11603372,35.241047 C-0.162453182,26.4120864 9.5483417,26.5277359 9.42744492,17 L12.9702883,17.0261144 C13.607593,27.5510757 3.77423953,28.47498 4.41749902,34.8223558 C4.79902322,38.7278924 9.10920804,38.1342922 9.10920804,38.1342922 Z" id="Stroke-27" stroke="#EFE5D0"></path>
                        <path d="M5.52821567,22.3889417 L2.79950534,25 C2.79950534,25 -2.86609397,20.2968936 1.92245103,14.1271759 C7.56624391,7.11498592 14.4147689,14.60624 21.4040181,8 L24,10.4258933 C16.6387333,18.1080808 8.84526328,11.5302501 4.59083026,16.3608378 C1.96301097,19.3221811 5.52821567,22.3889417 5.52821567,22.3889417" id="Fill-29" fill="#FECB5B"></path>
                        <path d="M5.52821567,22.3889417 L2.79950534,25 C2.79950534,25 -2.86609397,20.2968936 1.92245103,14.1271759 C7.56624391,7.11498592 14.4147689,14.60624 21.4040181,8 L24,10.4258933 C16.6387333,18.1080808 8.84526328,11.5302501 4.59083026,16.3608378 C1.96301097,19.3221811 5.52821567,22.3889417 5.52821567,22.3889417 Z" id="Stroke-31" stroke="#FECB5B"></path>
                    </g>
                </g>
            </g>
        </g>
    </g>
</svg>